A01_T0017_GRF_2plates.mot
version=1
nRows=90
nColumns=19
inDegrees=yes
endheader
time	ground_force_vx	ground_force_vy	ground_force_vz	ground_force_px	ground_force_py	ground_force_pz	1_ground_force_vx	1_ground_force_vy	1_ground_force_vz	1_ground_force_px	1_ground_force_py	1_ground_force_pz	ground_torque_x	ground_torque_y	ground_torque_z	1_ground_torque_x	1_ground_torque_y	1_ground_torque_z	
0.30094	-49.395	880.58	39.501	-0.31533	0	0.24895	0	0	0	0	0	0	0	3.1877	0	0	0	0
0.30135	-49.546	880.5	39.653	-0.31518	0	0.24901	0	0	0	0	0	0	0	3.205	0	0	0	0
0.30177	-49.416	880.23	39.608	-0.31514	0	0.249	0	0	0	0	0	0	0	3.2224	0	0	0	0
0.30219	-49.023	878.39	39.647	-0.31455	0	0.24893	0	0	0	0	0	0	0	3.2264	0	0	0	0
0.3026	-48.76	878.57	39.582	-0.31446	0	0.24895	0	0	0	0	0	0	0	3.1742	0	0	0	0
0.30302	-48.759	878.14	39.58	-0.31412	0	0.24892	0	0	0	0	0	0	0	3.196	0	0	0	0
0.30344	-48.346	877.34	39.707	-0.31394	0	0.24882	0	0	0	0	0	0	0	3.2045	0	0	0	0
0.30386	-48.041	876.02	39.618	-0.31361	0	0.24883	0	0	0	0	0	0	0	3.1999	0	0	0	0
0.30427	-48.171	876.99	39.487	-0.31366	0	0.24886	0	0	0	0	0	0	0	3.209	0	0	0	0
0.30469	-47.865	875.5	39.745	-0.31331	0	0.24886	0	0	0	0	0	0	0	3.239	0	0	0	0
0.30511	-47.799	875.24	39.723	-0.31314	0	0.24887	0	0	0	0	0	0	0	3.2085	0	0	0	0
0.30552	-47.645	874.01	39.874	-0.3128	0	0.24892	0	0	0	0	0	0	0	3.2168	0	0	0	0
0.30594	-47.49	874.28	40.112	-0.31263	0	0.24886	0	0	0	0	0	0	0	3.2081	0	0	0	0
0.30636	-47.382	874.11	39.848	-0.31243	0	0.24879	0	0	0	0	0	0	0	3.2257	0	0	0	0
0.30677	-47.317	873.67	39.824	-0.31225	0	0.24874	0	0	0	0	0	0	0	3.2475	0	0	0	0
0.30719	-47.271	873.59	40.195	-0.31217	0	0.24875	0	0	0	0	0	0	0	3.208	0	0	0	0
0.30761	-47.009	872.45	40.017	-0.3117	0	0.24873	0	0	0	0	0	0	0	3.2254	0	0	0	0
0.30802	-46.858	872.01	40.099	-0.31162	0	0.24867	0	0	0	0	0	0	0	3.308	0	0	0	0
0.30844	-46.701	872.8	40.232	-0.31156	0	0.24883	0	0	0	0	0	0	0	3.269	0	0	0	0
0.30886	-46.442	871.66	40.052	-0.31124	0	0.24861	0	0	0	0	0	0	0	3.3081	0	0	0	0
0.30927	-46.244	870.61	40.269	-0.31084	0	0.24862	0	0	0	0	0	0	0	3.2773	0	0	0	0
0.30969	-46.113	870.26	40.247	-0.31075	0	0.24868	0	0	0	0	0	0	0	3.2772	0	0	0	0
0.31011	-45.828	870.79	40.2	-0.31065	0	0.24864	0	0	0	0	0	0	0	3.2818	0	0	0	0
0.31052	-45.588	869.74	40.263	-0.31028	0	0.24865	0	0	0	0	0	0	0	3.2859	0	0	0	0
0.31094	-45.718	869.39	40.437	-0.31013	0	0.24859	0	0	0	0	0	0	0	3.2901	0	0	0	0
0.31136	-45.326	869.39	40.239	-0.31006	0	0.24858	0	0	0	0	0	0	0	3.2947	0	0	0	0
0.31177	-45.215	869.22	40.258	-0.30982	0	0.2486	0	0	0	0	0	0	0	3.3208	0	0	0	0
0.31219	-44.889	868.16	40.211	-0.30953	0	0.24854	0	0	0	0	0	0	0	3.3207	0	0	0	0
0.31261	-44.799	868.6	40.431	-0.3095	0	0.24862	0	0	0	0	0	0	0	3.2858	0	0	0	0
0.31303	-44.801	867.28	40.384	-0.30925	0	0.24851	0	0	0	0	0	0	0	3.3204	0	0	0	0
0.31344	-44.408	866.49	40.427	-0.30896	0	0.24849	0	0	0	0	0	0	0	3.281	0	0	0	0
0.31386	-44.209	866.85	40.531	-0.30879	0	0.24853	0	0	0	0	0	0	0	3.3378	0	0	0	0
0.31428	-43.948	865.88	40.66	-0.30854	0	0.24847	0	0	0	0	0	0	0	3.3418	0	0	0	0
0.31469	-43.642	866.41	40.593	-0.30855	0	0.2485	0	0	0	0	0	0	0	3.3464	0	0	0	0
0.31511	-43.399	866.5	40.702	-0.3084	0	0.24857	0	0	0	0	0	0	0	3.3116	0	0	0	0
0.31553	-43.289	866.07	40.874	-0.3082	0	0.24851	0	0	0	0	0	0	0	3.3245	0	0	0	0
0.31594	-42.96	865.63	40.894	-0.30795	0	0.24856	0	0	0	0	0	0	0	3.3157	0	0	0	0
0.31636	-42.829	865.54	40.958	-0.3078	0	0.24847	0	0	0	0	0	0	0	3.3026	0	0	0	0
0.31678	-42.48	865.54	40.932	-0.30775	0	0.24852	0	0	0	0	0	0	0	3.3724	0	0	0	0
0.31719	-42.175	865.18	40.842	-0.30759	0	0.24846	0	0	0	0	0	0	0	3.3986	0	0	0	0
0.31761	-41.98	864.57	40.774	-0.30741	0	0.24847	0	0	0	0	0	0	0	3.4073	0	0	0	0
0.31803	-41.761	864.04	40.86	-0.30713	0	0.24839	0	0	0	0	0	0	0	3.3766	0	0	0	0
0.31844	-41.629	863.87	40.88	-0.307	0	0.24847	0	0	0	0	0	0	0	3.4071	0	0	0	0
0.31886	-41.322	863.7	41.012	-0.30689	0	0.24849	0	0	0	0	0	0	0	3.346	0	0	0	0
0.31928	-41.102	864.22	41.205	-0.30688	0	0.24846	0	0	0	0	0	0	0	3.394	0	0	0	0
0.31969	-40.798	863.25	41.309	-0.30667	0	0.2483	0	0	0	0	0	0	0	3.4373	0	0	0	0
0.32011	-40.512	863.17	41.243	-0.30642	0	0.24846	0	0	0	0	0	0	0	3.42	0	0	0	0
0.32053	-40.406	862.02	40.958	-0.30621	0	0.24843	0	0	0	0	0	0	0	3.4243	0	0	0	0
0.32094	-40.076	862.73	41.153	-0.30618	0	0.24838	0	0	0	0	0	0	0	3.4113	0	0	0	0
0.32136	-39.789	863.35	41.238	-0.30609	0	0.24846	0	0	0	0	0	0	0	3.4159	0	0	0	0
0.32178	-39.793	862.2	41.083	-0.3058	0	0.24829	0	0	0	0	0	0	0	3.4375	0	0	0	0
0.32219	-39.444	861.94	41.037	-0.30566	0	0.24828	0	0	0	0	0	0	0	3.4332	0	0	0	0
0.32261	-39.357	861.32	41.058	-0.30559	0	0.24836	0	0	0	0	0	0	0	3.4592	0	0	0	0
0.32303	-39.136	861.94	40.946	-0.30544	0	0.2484	0	0	0	0	0	0	0	3.4813	0	0	0	0
0.32345	-38.896	861.41	41.078	-0.30531	0	0.24839	0	0	0	0	0	0	0	3.4244	0	0	0	0
0.32386	-38.504	861.32	40.921	-0.30514	0	0.24832	0	0	0	0	0	0	0	3.4682	0	0	0	0
0.32428	-38.374	860.71	40.874	-0.30498	0	0.24829	0	0	0	0	0	0	0	3.4986	0	0	0	0
0.3247	-38.131	861.59	40.941	-0.305	0	0.24841	0	0	0	0	0	0	0	3.4683	0	0	0	0
0.32511	-37.869	861.15	40.874	-0.3048	0	0.24842	0	0	0	0	0	0	0	3.4639	0	0	0	0
0.32553	-37.804	861.41	40.567	-0.30462	0	0.24838	0	0	0	0	0	0	0	3.4687	0	0	0	0
0.32595	-37.54	861.68	40.609	-0.30466	0	0.24852	0	0	0	0	0	0	0	3.4992	0	0	0	0
0.32636	-37.062	860.61	40.715	-0.3045	0	0.24843	0	0	0	0	0	0	0	3.5164	0	0	0	0
0.32678	-36.668	861.49	40.516	-0.30441	0	0.24844	0	0	0	0	0	0	0	3.5212	0	0	0	0
0.3272	-36.232	861.4	40.36	-0.30432	0	0.24844	0	0	0	0	0	0	0	3.5432	0	0	0	0
0.32761	-35.971	860.96	40.4	-0.30415	0	0.24837	0	0	0	0	0	0	0	3.5736	0	0	0	0
0.32803	-35.754	861.04	40.094	-0.30416	0	0.24844	0	0	0	0	0	0	0	3.5869	0	0	0	0
0.32845	-35.489	861.05	40.266	-0.30394	0	0.24846	0	0	0	0	0	0	0	3.5869	0	0	0	0
0.32886	-35.252	860.86	39.981	-0.30393	0	0.24843	0	0	0	0	0	0	0	3.6045	0	0	0	0
0.32928	-34.988	860.78	40.065	-0.30378	0	0.24849	0	0	0	0	0	0	0	3.6393	0	0	0	0
0.3297	-34.727	860.68	40	-0.30381	0	0.24847	0	0	0	0	0	0	0	3.6219	0	0	0	0
0.33011	-34.684	860.16	39.933	-0.30352	0	0.24843	0	0	0	0	0	0	0	3.6176	0	0	0	0
0.33053	-34.398	860.6	39.953	-0.30352	0	0.24853	0	0	0	0	0	0	0	3.6395	0	0	0	0
0.33095	-34.267	860.34	40.038	-0.30338	0	0.24851	0	0	0	0	0	0	0	3.6569	0	0	0	0
0.33136	-33.962	859.81	39.861	-0.30316	0	0.24848	0	0	0	0	0	0	0	3.6613	0	0	0	0
0.33178	-33.745	859.98	39.664	-0.30318	0	0.2485	0	0	0	0	0	0	0	3.6789	0	0	0	0
0.3322	-33.242	860.42	39.639	-0.30315	0	0.2485	0	0	0	0	0	0	0	3.6878	0	0	0	0
0.33262	-33.025	859.71	39.549	-0.3029	0	0.24847	0	0	0	0	0	0	0	3.7009	0	0	0	0
0.33303	-32.828	859.36	39.505	-0.30279	0	0.24856	0	0	0	0	0	0	0	3.7052	0	0	0	0
0.33345	-32.522	860.24	39.699	-0.3029	0	0.24843	0	0	0	0	0	0	0	3.7097	0	0	0	0
0.33387	-32.238	860.06	39.61	-0.30276	0	0.24848	0	0	0	0	0	0	0	3.7185	0	0	0	0
0.33428	-31.8	859.71	39.564	-0.30256	0	0.24856	0	0	0	0	0	0	0	3.7316	0	0	0	0
0.3347	-31.69	859.89	39.716	-0.3025	0	0.24856	0	0	0	0	0	0	0	3.7141	0	0	0	0
0.33512	-31.6	860.06	39.824	-0.30241	0	0.24865	0	0	0	0	0	0	0	3.7403	0	0	0	0
0.33553	-31.296	859.62	39.605	-0.30234	0	0.24865	0	0	0	0	0	0	0	3.7403	0	0	0	0
0.33595	-31.124	858.56	39.472	-0.30208	0	0.24852	0	0	0	0	0	0	0	3.7358	0	0	0	0
0.33637	-30.839	859.09	39.557	-0.302	0	0.24847	0	0	0	0	0	0	0	3.7273	0	0	0	0
0.33678	-30.444	859.53	39.577	-0.30196	0	0.24859	0	0	0	0	0	0	0	3.7449	0	0	0	0
0.3372	-30.312	859.53	39.857	-0.30188	0	0.24856	0	0	0	0	0	0	0	3.797	0	0	0	0
0.33762	-30.159	859.62	39.617	-0.30181	0	0.24857	0	0	0	0	0	0	0	3.7798	0	0	0	0
0.33803	-29.941	859.53	39.638	-0.30171	0	0.24857	0	0	0	0	0	0	0	3.7711	0	0	0	0
